<svg width="141" height="34" viewBox="0 0 141 34" fill="none" xmlns="http://www.w3.org/2000/svg">
<path d="M0 33.5156V29.7559L3.33008 29.1113V6.66016L0 6.01562V2.23438H24.9004V10.8066H20.0879L19.8086 7.06836H9.60352V15.6836H20.5605V20.5176H9.60352V29.1113L12.9551 29.7559V33.5156H0Z" fill="white"/>
<path d="M38.4355 33.9668C36.1296 33.9668 34.153 33.4655 32.5059 32.4629C30.873 31.4603 29.6198 30.071 28.7461 28.2949C27.8724 26.5046 27.4355 24.4492 27.4355 22.1289V21.6777C27.4355 19.3717 27.8724 17.3307 28.7461 15.5547C29.6198 13.7643 30.873 12.3678 32.5059 11.3652C34.153 10.3483 36.1152 9.83984 38.3926 9.83984C40.6842 9.83984 42.6465 10.3411 44.2793 11.3438C45.9264 12.3464 47.1868 13.7428 48.0605 15.5332C48.9342 17.3092 49.3711 19.3574 49.3711 21.6777V22.1289C49.3711 24.4492 48.9342 26.5046 48.0605 28.2949C47.1868 30.071 45.9336 31.4603 44.3008 32.4629C42.668 33.4655 40.7129 33.9668 38.4355 33.9668ZM38.4355 29.1543C40.054 29.1543 41.2357 28.5098 41.9805 27.2207C42.7396 25.9316 43.1191 24.2344 43.1191 22.1289V21.6777C43.1191 19.6152 42.7396 17.9323 41.9805 16.6289C41.2214 15.3255 40.0254 14.6738 38.3926 14.6738C36.7598 14.6738 35.571 15.3255 34.8262 16.6289C34.0814 17.9323 33.709 19.6152 33.709 21.6777V22.1289C33.709 24.2487 34.0814 25.9531 34.8262 27.2422C35.571 28.5169 36.7741 29.1543 38.4355 29.1543Z" fill="white"/>
<path d="M63.5293 33.9668C61.2233 33.9668 59.2467 33.4655 57.5996 32.4629C55.9668 31.4603 54.7135 30.071 53.8398 28.2949C52.9661 26.5046 52.5293 24.4492 52.5293 22.1289V21.6777C52.5293 19.3717 52.9661 17.3307 53.8398 15.5547C54.7135 13.7643 55.9668 12.3678 57.5996 11.3652C59.2467 10.3483 61.209 9.83984 63.4863 9.83984C65.778 9.83984 67.7402 10.3411 69.373 11.3438C71.0202 12.3464 72.2806 13.7428 73.1543 15.5332C74.028 17.3092 74.4648 19.3574 74.4648 21.6777V22.1289C74.4648 24.4492 74.028 26.5046 73.1543 28.2949C72.2806 30.071 71.0273 31.4603 69.3945 32.4629C67.7617 33.4655 65.8066 33.9668 63.5293 33.9668ZM63.5293 29.1543C65.1478 29.1543 66.3294 28.5098 67.0742 27.2207C67.8333 25.9316 68.2129 24.2344 68.2129 22.1289V21.6777C68.2129 19.6152 67.8333 17.9323 67.0742 16.6289C66.3151 15.3255 65.1191 14.6738 63.4863 14.6738C61.8535 14.6738 60.6647 15.3255 59.9199 16.6289C59.1751 17.9323 58.8027 19.6152 58.8027 21.6777V22.1289C58.8027 24.2487 59.1751 25.9531 59.9199 27.2422C60.6647 28.5169 61.8678 29.1543 63.5293 29.1543Z" fill="white"/>
<path d="M86.2168 33.9668C84.3691 33.9668 82.7793 33.4941 81.4473 32.5488C80.1296 31.5892 79.1198 30.2572 78.418 28.5527C77.7161 26.834 77.3652 24.8288 77.3652 22.5371V22.0859C77.3652 19.6367 77.7161 17.4954 78.418 15.6621C79.1341 13.8288 80.151 12.4036 81.4688 11.3867C82.7865 10.3555 84.362 9.83984 86.1953 9.83984C87.4844 9.83984 88.6016 10.0977 89.5469 10.6133C90.5065 11.1146 91.3372 11.8307 92.0391 12.7617V4.42578L88.6875 3.78125V0H98.3125V29.1113L101.32 29.7559V33.5156H92.877L92.4043 30.6797C91.6738 31.7539 90.8001 32.5703 89.7832 33.1289C88.7663 33.6875 87.5775 33.9668 86.2168 33.9668ZM88.0859 29.0898C89.819 29.0898 91.1367 28.3665 92.0391 26.9199V17.0586C91.1367 15.4974 89.8333 14.7168 88.1289 14.7168C86.5534 14.7168 85.4076 15.3971 84.6914 16.7578C83.9896 18.1185 83.6387 19.8945 83.6387 22.0859V22.5371C83.6387 24.571 83.9824 26.1751 84.6699 27.3496C85.3574 28.5098 86.4961 29.0898 88.0859 29.0898Z" fill="white"/>
<path d="M103.125 33.5156V29.7559L106.154 29.1113V14.6953L102.803 14.0508V10.2695H112.428V29.1113L115.436 29.7559V33.5156H103.125ZM105.939 5.34961V0H112.428V5.34961H105.939Z" fill="white"/>
<path d="M125.318 33.9668C123.012 33.9668 121.179 33.3509 119.818 32.1191C118.458 30.873 117.777 29.1829 117.777 27.0488C117.777 24.8717 118.658 23.0957 120.42 21.7207C122.196 20.3457 124.803 19.6582 128.24 19.6582H131.312V17.9395C131.312 16.8223 130.983 15.9199 130.324 15.2324C129.68 14.5306 128.706 14.1797 127.402 14.1797C126.729 14.1797 126.12 14.2656 125.576 14.4375C125.046 14.5951 124.566 14.8242 124.137 15.125L123.643 18.1973H119.131L119.045 12.1602C120.262 11.4727 121.58 10.9141 122.998 10.4844C124.416 10.0547 125.999 9.83984 127.746 9.83984C130.783 9.83984 133.182 10.5488 134.943 11.9668C136.705 13.3848 137.586 15.3971 137.586 18.0039V27.5859C137.586 27.901 137.586 28.209 137.586 28.5098C137.6 28.8105 137.629 29.1113 137.672 29.4121L140.1 29.7559V33.5156H132.322C132.165 33.1146 132.007 32.6849 131.85 32.2266C131.692 31.7682 131.577 31.3099 131.506 30.8516C130.761 31.7969 129.88 32.556 128.863 33.1289C127.861 33.6875 126.679 33.9668 125.318 33.9668ZM126.994 29.3262C127.868 29.3262 128.691 29.1328 129.465 28.7461C130.253 28.3451 130.868 27.8223 131.312 27.1777V23.5039H128.219C126.844 23.5039 125.798 23.819 125.082 24.4492C124.38 25.0794 124.029 25.8385 124.029 26.7266C124.029 27.5573 124.287 28.2018 124.803 28.6602C125.333 29.1042 126.063 29.3262 126.994 29.3262Z" fill="white"/>
</svg>
